<?xml version="1.0" encoding="utf-8"?>
<!-- Generator: Adobe Illustrator 27.5.0, SVG Export Plug-In . SVG Version: 6.00 Build 0)  -->
<svg version="1.1" id="Layer_1" xmlns="http://www.w3.org/2000/svg" xmlns:xlink="http://www.w3.org/1999/xlink" x="0px" y="0px"
	 viewBox="0 0 185.8 185.8" enable-background="new 0 0 185.8 185.8" xml:space="preserve">
<g>
	<g>
		<path d="M182.5,180.9l-1.6,1.6c-4.4,4.4-11.6,4.4-16,0L3.3,21c-4.4-4.4-4.4-11.6,0-16L5,3.3c4.4-4.4,11.6-4.4,16,0l161.5,161.5
			C186.9,169.3,186.9,176.4,182.5,180.9z"/>
	</g>
	<g>
		<path d="M3.3,180.9l1.6,1.6c4.4,4.4,11.6,4.4,16,0L182.5,21c4.4-4.4,4.4-11.6,0-16l-1.6-1.6c-4.4-4.4-11.6-4.4-16,0L3.3,164.8
			C-1.1,169.3-1.1,176.4,3.3,180.9z"/>
	</g>
</g>
</svg>
