<?xml version="1.0" encoding="utf-8"?>
<!-- Generator: Adobe Illustrator 27.5.0, SVG Export Plug-In . SVG Version: 6.00 Build 0)  -->
<svg version="1.1" id="Layer_1" xmlns="http://www.w3.org/2000/svg" xmlns:xlink="http://www.w3.org/1999/xlink" x="0px" y="0px"
	 viewBox="0 0 156.9 98.7" enable-background="new 0 0 156.9 98.7" xml:space="preserve">
<g>
	<g>
		<path d="M61.6,86.3l9.1,9.1c4.4,4.4,11.6,4.4,16,0l66.9-66.9c4.4-4.4,4.4-11.6,0-16l-9.1-9.1c-4.4-4.4-11.6-4.4-16,0L61.6,70.2
			C57.1,74.6,57.1,81.8,61.6,86.3z"/>
	</g>
	<g>
		<path d="M95.4,86.3l-9.1,9.1c-4.4,4.4-11.6,4.4-16,0L3.3,28.5c-4.4-4.4-4.4-11.6,0-16l9.1-9.1c4.4-4.4,11.6-4.4,16,0l66.9,66.9
			C99.8,74.6,99.8,81.8,95.4,86.3z"/>
	</g>
</g>
</svg>
