<?xml version="1.0" encoding="utf-8"?>
<!-- Generator: Adobe Illustrator 27.5.0, SVG Export Plug-In . SVG Version: 6.00 Build 0)  -->
<svg version="1.1" id="Layer_1" xmlns="http://www.w3.org/2000/svg" xmlns:xlink="http://www.w3.org/1999/xlink" x="0px" y="0px"
	 viewBox="0 0 206 206" enable-background="new 0 0 206 206" xml:space="preserve">
<g>
	<path d="M89,25c17.1,0,33.2,6.7,45.3,18.7c25,25,25,65.6,0,90.5C122.2,146.3,106.1,153,89,153c-17.1,0-33.2-6.7-45.3-18.7
		C31.7,122.2,25,106.1,25,89s6.7-33.2,18.7-45.3C55.8,31.7,71.9,25,89,25 M89,0C66.2,0,43.4,8.7,26.1,26.1
		c-34.8,34.8-34.8,91.1,0,125.9C43.4,169.3,66.2,178,89,178s45.6-8.7,62.9-26.1c34.8-34.8,34.8-91.1,0-125.9C134.6,8.7,111.8,0,89,0
		L89,0z"/>
</g>
<g>
	<path d="M198,196.4l-1.6,1.6c-4.4,4.4-11.6,4.4-16,0l-43.4-43.4c-4.4-4.4-4.4-11.6,0-16l1.6-1.6c4.4-4.4,11.6-4.4,16,0l43.4,43.4
		C202.4,184.8,202.4,191.9,198,196.4z"/>
</g>
</svg>
